<svg width="293" height="116" viewBox="0 0 293 116" fill="none" xmlns="http://www.w3.org/2000/svg">
<g clip-path="url(#clip0_2_2)">
<path d="M170.685 90.8298C175.116 84.0152 180.476 78.5204 186.707 73.9998C190.175 71.4838 191.449 68.6606 190.195 64.2021C188.56 65.4367 187.091 66.6736 185.499 67.724C179.827 71.4659 176.903 71.2845 171.719 66.9073C170.948 66.2565 170.214 65.2427 169.196 65.5637C164.078 67.1779 159.418 69.7711 155.085 72.8833C152.285 74.8945 153.358 78.1022 153.388 80.8074C153.49 89.745 152.377 98.4378 148.413 106.532C144.687 114.142 139.203 116.87 133.365 114.371C126.432 111.403 123.036 103.229 126.05 96.0304C129.97 86.6676 136.98 79.7447 144.923 73.8131C148.375 71.2357 149.426 68.4534 148.197 64.4559C135.584 72.8804 130.755 72.1213 127.02 60.9687C125.157 61.0703 123.194 61.3854 121.265 61.2403C116.964 60.9166 114.389 61.6063 113.737 66.9804C113.053 72.6137 105.894 75.8796 100.829 73.9173C96.2271 72.1341 94.4549 66.0345 96.9765 60.6571C100.084 54.0299 104.067 52.8563 110.507 55.9133C116.768 58.8854 123.575 58.6874 129.874 56.3927C133.659 55.0136 137.241 54.3652 141.038 54.9077C143.661 55.2827 145.949 55.9344 148.722 54.6578C151.633 53.3182 152.716 56.0026 153.173 58.4268C153.691 61.1749 152.806 64.0615 154.086 67.5518C159.546 63.6619 167.019 64.7449 171.125 57.7494C173.766 53.2516 179.4 54.3643 184.043 55.1132C185.852 55.405 187.648 56.2127 189.379 55.2214C193.739 52.7249 194.753 55.7051 195.194 58.9193C195.548 61.5023 195.265 64.1726 195.265 67.5589C200.611 65.5041 205.216 63.7887 209.775 61.9601C212.245 60.9693 211.665 58.6645 211.629 56.7523C211.354 42.076 212.509 27.5041 214.627 12.9928C214.938 10.862 215.035 8.70125 216.749 7.06378C219.796 7.10939 220.501 9.01929 220.084 11.434C217.926 23.9204 217.714 36.5802 216.582 49.1573C215.95 56.1803 216.482 63.1521 217.536 70.0673C218.414 75.8326 220.752 76.6203 225.654 73.1678C231.888 68.7776 235.735 62.1347 241.014 56.843C242.179 55.6755 243.333 54.3597 244.755 53.615C247.853 51.9932 250.984 52.0564 253.224 55.128C255.435 58.1597 254.161 60.899 251.693 63.0509C249.984 64.5421 247.929 65.6373 245.774 67.0793C247.644 69.4531 249.866 70.9301 252.661 70.5757C261.414 69.4658 268.369 65.2923 272.634 57.4301C274.949 53.1636 284.7 47.8899 289.562 48.7673C290.787 48.9884 291.949 49.4153 292.22 50.6764C292.597 52.4299 291.18 52.8388 289.872 53.2839C286.008 54.5981 281.755 55.0297 278.385 58.1442C280.317 62.092 284.55 62.6037 287.473 64.8408C289.491 66.3857 292.833 67.292 291.788 70.7071C290.875 73.6901 287.798 74.0054 285.154 74.2184C282.34 74.4452 279.49 74.3717 276.664 74.2436C274.814 74.1597 273.008 73.7038 272.487 70.9468C276.404 69.9163 280.645 71.0475 285.113 68.9228C281.427 66.973 278.166 65.2482 274.99 63.5679C260.984 77.3888 248.046 78.3214 239.339 66.0311C236.997 68.8221 234.91 71.7554 232.382 74.2408C223.542 82.933 215.548 80.6254 212.531 68.6655C212.294 67.7284 211.787 66.8598 211.191 65.4546C206.061 67.3948 201.399 69.773 197.083 72.854C195.165 74.2226 195.275 76.3066 195.355 78.3062C195.634 85.3342 195.08 92.2685 193.25 99.0821C192.339 102.478 191.132 105.75 189.242 108.73C185.565 114.532 180.51 116.578 175.372 114.387C169.32 111.806 165.447 104.401 167.274 98.4255C168.043 95.9063 169.402 93.567 170.685 90.8298ZM141.506 84.0072C136.919 88.8964 132.844 94.1147 130.96 100.705C129.758 104.912 131.329 109.204 134.683 110.416C138.824 111.912 140.933 109.015 142.582 106.085C147.437 97.4552 147.747 87.8807 148.623 77.2934C145.823 79.8927 143.893 81.6848 141.506 84.0072ZM178.871 89.3875C176.548 92.8177 174.231 96.2369 173.069 100.3C171.781 104.803 173.195 109.196 176.715 110.413C181.105 111.93 183.127 108.739 184.805 105.653C189.422 97.1635 189.849 87.8429 190.222 78.0309C185.67 81.264 182.48 85.0387 178.871 89.3875ZM101.198 68.1667C102.34 70.2938 103.982 71.0238 106.086 69.6239C108.292 68.1567 109.611 65.9858 109.218 63.3261C108.871 60.9847 106.625 59.9414 104.739 60.1581C100.242 60.6748 100.269 64.0617 101.198 68.1667ZM134.821 66.2362C138.549 65.3761 140.973 62.9217 143.15 59.8972C139.726 57.7011 136.788 58.0949 134.215 60.4902C132.391 62.1873 132.052 64.1801 134.821 66.2362ZM175.772 60.9789C174.37 62.8567 174.154 65.4784 176.443 65.7895C180.605 66.3549 182.798 62.8858 185.096 59.8895C181.714 57.7007 178.891 58.2283 175.772 60.9789Z" fill="black"/>
<path d="M71.3141 22.6902C68.9074 32.466 63.9518 37.9645 58.2276 37.537C57.5451 35.0102 59.8527 34.1236 61.0327 32.7439C64.7824 28.3596 66.932 23.2862 66.365 17.6265C65.3162 7.15844 55.8398 3.55271 46.7089 4.75012C32.0523 6.67217 22.0255 15.4989 14.6 27.7672C5.30326 43.127 2.65412 59.4076 8.40017 76.5724C14.012 93.3362 30.4812 100.139 46.2096 92.2206C58.5068 86.0297 68.0568 77.1022 72.1572 63.4138C72.7289 61.5054 73.0391 59.5434 72.2613 57.1911C60.6478 57.0017 49.2436 59.0319 37.8013 60.9032C34.7414 61.4037 30.9405 63.3029 28.5873 59.0559C36.3662 53.1622 87.3378 50.2592 90.3637 55.4035C90.1263 55.6187 89.9211 55.9297 89.641 56.0284C86.4922 57.1381 81.6184 54.6455 80.2246 57.409C77.9083 62.0016 76.6982 67.5371 76.4938 72.7334C75.999 85.3103 73.7869 97.9754 77.1512 110.507C77.3612 111.289 77.104 112.159 76.1184 112.915C72.8304 112.851 72.1866 110.44 71.6934 107.648C70.468 100.712 70.7203 93.7189 70.6188 86.7333C70.593 84.9596 71.0639 83.1128 70.0117 81.0098C65.4405 85.2595 61.5268 90.0359 56.1966 93.109C43.389 100.493 30.2019 102.633 16.9769 94.6053C6.4339 88.2059 2.1198 77.5804 0.921091 65.9998C-1.25998 44.9287 4.78846 26.3584 20.5873 11.7842C30.3677 2.76196 41.9391 -1.71445 55.4732 1.70164C66.1425 4.39465 71.2969 11.2292 71.3141 22.6902Z" fill="black"/>
</g>
<defs>
<clipPath id="clip0_2_2">
<rect width="291.791" height="114.716" fill="white" transform="translate(0.491028 0.556213)"/>
</clipPath>
</defs>
</svg>
